<?xml version="1.0" encoding="UTF-8"?>
<svg width="132px" height="132px" viewBox="0 0 132 132" version="1.1" xmlns="http://www.w3.org/2000/svg" xmlns:xlink="http://www.w3.org/1999/xlink">
    <title>编组 4</title>
    <defs>
        <polygon id="path-1" points="0 0.165266129 113.745895 0.165266129 113.745895 89.35575 0 89.35575"></polygon>
    </defs>
    <g id="页面-1" stroke="none" stroke-width="1" fill="none" fill-rule="evenodd">
        <g id="产品-飞鸽CRM-产品优势点击状态" transform="translate(-1059.000000, -280.000000)">
            <g id="编组-6" transform="translate(360.000000, 246.000000)">
                <g id="3" transform="translate(627.000000, 0.000000)">
                    <g id="编组-4" transform="translate(72.000000, 34.000000)">
                        <rect id="矩形" fill="#D8D8D8" opacity="0" x="0" y="0" width="132" height="132"></rect>
                        <g id="编组" transform="translate(9.580645, 12.774194)">
                            <g>
                                <mask id="mask-2" fill="white">
                                    <use xlink:href="#path-1"></use>
                                </mask>
                                <g id="Clip-2"></g>
                                <path d="M94.697354,39.8797016 C94.7184508,39.3687339 94.7263621,38.8577661 94.7263621,38.3467984 C94.7263621,17.2587339 77.7882895,0.165266129 56.8919347,0.165266129 C35.9955798,0.165266129 19.0548702,17.2587339 19.0548702,38.3467984 C19.0548702,38.8524435 19.0654185,39.3634113 19.0865153,39.8797016 C5.73489435,43.0972016 -2.50339597,56.6272016 0.684854032,70.0986532 C3.35623306,81.3878468 13.3508298,89.3530887 24.8512089,89.35575 L31.5731685,89.35575 L31.5731685,81.5475242 L24.8591202,81.5475242 C15.4051282,81.5688145 7.72590242,73.8510726 7.70480565,64.3103468 C7.68634597,55.2513145 14.6034508,47.7172016 23.5563944,47.0465565 L27.6597169,46.7351855 L27.0716444,42.5942177 C26.8764992,41.1810726 26.7762895,39.7572823 26.7736524,38.3308306 C27.0057169,21.5540565 40.6711524,8.14381452 57.2927734,8.37800806 C73.5900315,8.60687903 86.7465073,21.8840565 86.9732976,38.3308306 C86.9706605,39.7572823 86.8730879,41.1810726 86.6753056,42.5942177 L86.0872331,46.7351855 L90.1905556,47.0465565 C99.6181766,47.7517984 106.696144,56.0363952 105.994677,65.5505081 C105.332765,74.5855887 97.8671444,81.5661532 88.8904669,81.5475242 L82.2502573,81.5475242 L82.2502573,89.35575 L88.9273863,89.35575 C102.650838,89.337121 113.763564,78.0931694 113.747758,64.2411532 C113.734556,52.6565565 105.85491,42.5888952 94.6920798,39.8850242 L94.697354,39.8797016 Z" id="Fill-1" fill="#F9F9F9" mask="url(#mask-2)"></path>
                            </g>
                            <path d="M59.817027,57.9760805 C58.2284365,56.1120467 55.436449,55.8910255 53.5742384,57.4807801 C53.3962525,57.6325657 53.2315492,57.8003288 53.0801283,57.9760805 L39.5053838,73.6765716 C38.7376537,74.5473417 38.3205823,75.665762 38.3232388,76.8241259 C38.2807347,79.3725265 40.3023356,81.4762219 42.8446116,81.52948 C44.1409864,81.5241542 45.3682921,80.9542924 46.2104044,79.9663544 L51.8953268,73.3969665 L51.8953268,101.919355 C51.8953268,104.422479 53.9195842,106.451613 56.4166996,106.451613 C58.913815,106.451613 60.9380724,104.422479 60.9380724,101.919355 L60.9380724,73.3730003 L66.6256513,79.9423883 C67.4624506,80.9303262 68.6897563,81.500188 69.9808181,81.5055138 C72.5284071,81.4575815 74.5579775,79.3538862 74.5154734,76.8001598 C74.5128169,75.6444588 74.093089,74.5260384 73.3359849,73.6526054 L59.817027,57.9760805 Z" id="Fill-3" fill="#F9F9F9"></path>
                        </g>
                    </g>
                </g>
            </g>
        </g>
    </g>
</svg>