<?xml version="1.0" encoding="UTF-8"?>
<svg width="124px" height="124px" viewBox="0 0 124 124" version="1.1" xmlns="http://www.w3.org/2000/svg" xmlns:xlink="http://www.w3.org/1999/xlink">
    <title>编组 4</title>
    <defs>
        <polygon id="path-1" points="0 0.15525 106.852205 0.15525 106.852205 83.94025 0 83.94025"></polygon>
    </defs>
    <g id="页面-1" stroke="none" stroke-width="1" fill="none" fill-rule="evenodd">
        <g id="产品-飞鸽CRM" transform="translate(-1055.000000, -1967.000000)">
            <g id="编组-7" transform="translate(0.000000, 1680.000000)">
                <g id="编组-6" transform="translate(360.000000, 254.000000)">
                    <g id="3" transform="translate(627.000000, 0.000000)">
                        <g id="编组-4" transform="translate(68.000000, 33.000000)">
                            <rect id="矩形" fill="#D8D8D8" opacity="0" x="0" y="0" width="124" height="124"></rect>
                            <g id="编组" transform="translate(9.000000, 12.000000)">
                                <g>
                                    <mask id="mask-2" fill="white">
                                        <use xlink:href="#path-1"></use>
                                    </mask>
                                    <g id="Clip-2"></g>
                                    <path d="M88.9581205,37.46275 C88.9779386,36.98275 88.9853705,36.50275 88.9853705,36.02275 C88.9853705,16.21275 73.0738477,0.15525 53.4439386,0.15525 C33.8140295,0.15525 17.9000295,16.21275 17.9000295,36.02275 C17.9000295,36.49775 17.9099386,36.97775 17.9297568,37.46275 C5.387325,40.48525 -2.351675,53.19525 0.643347727,65.85025 C3.152825,76.45525 12.5416886,83.93775 23.345075,83.94025 L29.6596432,83.94025 L29.6596432,76.60525 L23.3525068,76.60525 C14.4714841,76.62525 7.25766591,69.37525 7.23784773,60.41275 C7.22050682,51.90275 13.7183932,44.82525 22.1287341,44.19525 L25.9833705,43.90275 L25.4309386,40.01275 C25.2476205,38.68525 25.1534841,37.34775 25.1510068,36.00775 C25.3690068,20.24775 38.2062341,7.65025 53.8204841,7.87025 C69.1300295,8.08525 81.4891432,20.55775 81.7021886,36.00775 C81.6997114,37.34775 81.6080523,38.68525 81.4222568,40.01275 L80.869825,43.90275 L84.7244614,44.19525 C93.5807114,44.85775 100.229711,52.64025 99.5707568,61.57775 C98.9489614,70.06525 91.9358023,76.62275 83.5031659,76.60525 L77.2653932,76.60525 L77.2653932,83.94025 L83.5378477,83.94025 C96.429575,83.92275 106.868802,73.36025 106.853954,60.34775 C106.841552,49.46525 99.4394614,40.00775 88.9531659,37.46775 L88.9581205,37.46275 Z" id="Fill-1" fill="#467CFD" mask="url(#mask-2)"></path>
                                </g>
                                <path d="M56.1917526,54.4623787 C54.6994404,52.7113166 52.0766642,52.5036906 50.3273149,53.9970965 C50.160116,54.1396829 50.0053947,54.2972785 49.8631509,54.4623787 L37.1111182,69.2113248 C36.3899171,70.029321 35.9981227,71.0799582 36.0006182,72.1681183 C35.9606902,74.5620704 37.8597698,76.538269 40.2479685,76.5882994 C41.4657751,76.5832964 42.6186986,76.0479716 43.4097738,75.1199087 L48.7501555,68.9486655 L48.7501555,95.7424175 C48.7501555,98.0938438 50.6517306,100 52.9975057,100 C55.3432808,100 57.2448559,98.0938438 57.2448559,95.7424175 L57.2448559,68.9261518 L62.587733,75.0973951 C63.3738172,76.025458 64.5267407,76.5607827 65.7395564,76.5657857 C68.1327461,76.5207584 70.0393122,74.5445597 69.9993841,72.1456046 C69.9968886,71.0599461 69.6025988,70.0093088 68.8913797,69.1888111 L56.1917526,54.4623787 Z" id="Fill-3" fill="#8BAEF7"></path>
                            </g>
                        </g>
                    </g>
                </g>
            </g>
        </g>
    </g>
</svg>