<?xml version="1.0" encoding="UTF-8"?>
<svg width="124px" height="124px" viewBox="0 0 124 124" version="1.1" xmlns="http://www.w3.org/2000/svg" xmlns:xlink="http://www.w3.org/1999/xlink">
    <title>编组 4</title>
    <defs>
        <polygon id="path-1" points="0 0.300529412 64.025 0.300529412 64.025 88.5 0 88.5"></polygon>
    </defs>
    <g id="页面-1" stroke="none" stroke-width="1" fill="none" fill-rule="evenodd">
        <g id="产品-飞鸽CRM" transform="translate(-1368.000000, -1967.000000)">
            <g id="编组-7" transform="translate(0.000000, 1680.000000)">
                <g id="编组-6" transform="translate(360.000000, 254.000000)">
                    <g id="4" transform="translate(940.000000, 0.000000)">
                        <g id="编组-4" transform="translate(68.000000, 33.000000)">
                            <rect id="矩形" fill="#D8D8D8" opacity="0" x="0" y="0" width="124" height="124"></rect>
                            <g id="编组" transform="translate(30.000000, 13.000000)">
                                <g>
                                    <mask id="mask-2" fill="white">
                                        <use xlink:href="#path-1"></use>
                                    </mask>
                                    <g id="Clip-2"></g>
                                    <path d="M54.0577917,88.5005294 L36.8869583,88.5005294 C34.7744583,88.5005294 33.041125,86.8037647 33.041125,84.7417059 C33.041125,82.677 34.7744583,80.9828824 36.8869583,80.9828824 L54.0577917,80.9828824 C55.2494583,80.9828824 56.2244583,80.0299412 56.2244583,78.8625882 L56.2244583,9.98876471 C56.2244583,8.82405882 55.2494583,7.87111765 54.0577917,7.87111765 L9.91195833,7.87111765 C8.72029167,7.87111765 7.74529167,8.82405882 7.74529167,9.98876471 L7.74529167,78.8122941 C7.74529167,79.977 8.72029167,80.9299412 9.91195833,80.9299412 L17.766125,80.9299412 C19.878625,80.9299412 21.6119583,82.6240588 21.6119583,84.6887647 C21.6119583,86.7534706 19.878625,88.4449412 17.766125,88.4449412 L9.91195833,88.4449412 C4.441125,88.4449412 -0.000541666667,84.1064118 -0.000541666667,78.7593529 L-0.000541666667,9.98876471 C-0.000541666667,4.64170588 4.441125,0.300529412 9.91195833,0.300529412 L54.1146667,0.300529412 C59.5827917,0.300529412 64.0271667,4.64170588 64.0271667,9.98876471 L64.0271667,78.8122941 C63.9702917,84.1567059 59.5313333,88.5005294 54.0577917,88.5005294" id="Fill-1" fill="#417BFC" mask="url(#mask-2)"></path>
                                </g>
                                <path d="M27.5119703,78 C26.472588,78 25.4332057,77.5695067 24.667345,76.8161435 L15.5317213,67.3452915 C14.0547043,65.7847534 14.1094087,63.3632287 15.6958343,61.9103139 C17.28226,60.4547085 19.743955,60.5112108 21.220972,62.0717489 L27.785492,68.9058296 L46.5490783,52.7623318 C48.1902083,51.3632287 50.6519033,51.5784753 52.074216,53.1390135 C53.4418243,54.7506726 53.2777113,57.1183857 51.6912856,58.5201794 L30.083074,77.0852018 C29.3719177,77.67713 28.441944,78 27.5119703,78 M51.1442423,35.1659193 C51.2016819,38.0179372 48.9013646,40.3856502 46.002035,40.4394619 C43.1054405,40.4932735 40.6957146,38.2331839 40.6410103,35.3811659 L40.6410103,35.1659193 C40.6957146,32.3139013 43.1054405,30.0538117 46.002035,30.1076233 C48.791956,30.161435 51.0922732,32.4215247 51.1442423,35.1659193 M37.960498,35.1659193 C37.960498,38.0179372 35.6082116,40.3318386 32.708882,40.3318386 C29.8095523,40.3318386 27.457266,38.0179372 27.457266,35.1659193 C27.457266,32.3139013 29.8095523,30 32.708882,30 C35.6082116,30 37.960498,32.3139013 37.960498,35.1659193 M24.503232,35.1659193 C24.503232,38.0179372 22.1509457,40.3318386 19.251616,40.3318386 C16.3522863,40.3318386 14,38.0179372 14,35.1659193 C14,32.3139013 16.3522863,30 19.251616,30 C22.1509457,30 24.503232,32.3139013 24.503232,35.1659193" id="Fill-3" fill="#417BFC"></path>
                            </g>
                        </g>
                    </g>
                </g>
            </g>
        </g>
    </g>
</svg>