<?xml version="1.0" encoding="UTF-8"?>
<svg width="132px" height="132px" viewBox="0 0 132 132" version="1.1" xmlns="http://www.w3.org/2000/svg" xmlns:xlink="http://www.w3.org/1999/xlink">
    <title>编组 4</title>
    <defs>
        <polygon id="path-1" points="0.000485796886 0.746794875 88.8661008 0.746794875 88.8661008 89.6143893 0.000485796886 89.6143893"></polygon>
    </defs>
    <g id="页面-1" stroke="none" stroke-width="1" fill="none" fill-rule="evenodd">
        <g id="产品-飞鸽CRM-产品优势点击状态" transform="translate(-739.000000, -280.000000)">
            <g id="编组-6" transform="translate(360.000000, 246.000000)">
                <g id="2" transform="translate(307.000000, 0.000000)">
                    <g id="编组-4" transform="translate(72.000000, 34.000000)">
                        <rect id="矩形" fill="#D8D8D8" opacity="0" x="0" y="0" width="132" height="132"></rect>
                        <g id="编组" transform="translate(21.000000, 21.000000)">
                            <g>
                                <mask id="mask-2" fill="white">
                                    <use xlink:href="#path-1"></use>
                                </mask>
                                <g id="Clip-2"></g>
                                <path d="M82.2962974,10.3744744 L82.2589576,10.42675 L55.49134,31.9692929 C53.5372267,33.5450301 52.4195237,35.9049019 52.4195237,38.4415151 L52.4195237,81.2801585 C52.422013,82.0891862 51.99634,82.850917 51.2669703,83.2965046 C50.9109981,83.4732461 50.5176861,83.5630438 50.1218848,83.5630438 C49.7310622,83.5678401 49.3477075,83.4707568 49.0016925,83.2865474 L37.4413079,76.9611948 C36.7318527,76.6102012 36.2887544,75.8360238 36.2887544,74.93987 L36.2887544,38.2050301 C36.2887544,35.69331 35.1486476,33.3384168 33.1571946,31.7402758 L7.31062396,11.1063334 L6.40451285,10.3645171 C5.90416028,9.65755132 5.84690601,8.74148294 6.24021798,8.00962397 C6.60365815,7.20806413 7.36041029,6.7276261 8.26901072,6.7276261 L80.4965217,6.7276261 C81.3578251,6.73260473 82.1419598,7.22300003 82.5178465,7.99468807 C82.8962226,8.76637611 82.8115858,9.6849338 82.2962974,10.3744744 M88.1387226,5.6870919 C86.7745773,2.68746582 83.7799298,0.748288465 80.5015003,0.748288465 L8.13458764,0.745796761 C4.89100857,0.743309832 1.95859403,2.68746582 0.699000003,5.67713464 C-0.642741456,8.7962479 -0.0229017095,12.2987159 2.31207693,14.6336945 L2.56847651,14.9423697 L29.2887971,36.3579574 C29.8439147,36.7861198 30.177483,37.4457886 30.1899296,38.1452865 L30.1899296,74.8875943 C30.1625471,77.9370067 31.8353677,80.7499341 34.5288078,82.181291 L46.0966605,88.6261307 C47.3736797,89.2907782 48.6880387,89.6143893 50.1144169,89.6143893 L50.1218848,89.6143893 C52.3871626,89.6143893 54.4981028,88.7406393 56.066372,87.1549448 C57.6072588,85.5941435 58.4386904,83.5105858 58.4113079,81.2801585 L58.4113079,38.3743036 C58.4162866,37.6897416 58.7174938,37.0400301 59.2402503,36.5944425 L86.3414363,14.9274338 L86.6625581,14.61378 C88.9178786,12.2115898 89.5028679,8.68671799 88.1387226,5.6870919" id="Fill-1" fill="#F9F9F9" mask="url(#mask-2)"></path>
                            </g>
                            <path d="M66.6851718,46.2475264 C65.0992957,46.2055713 63.824132,44.8827521 63.8514746,43.2958626 C63.8514746,41.6546784 65.1241527,40.3269232 66.6851718,40.3269232 L85.6585142,40.3269232 C87.222019,40.3269232 88.4922114,41.6546784 88.4922114,43.2859909 C88.5220397,44.0633939 88.2535842,44.7840343 87.7365588,45.3393222 C87.2195333,45.8946101 86.5135947,46.2154431 85.7504851,46.2450585 L85.6560285,46.2475264 L66.6851718,46.2475264 Z M66.6851718,59.5300134 C65.0992957,59.4880583 63.824132,58.1627711 63.8514746,56.5783496 C63.8514746,54.9346974 65.1241527,53.6020064 66.6851718,53.6020064 L85.6585142,53.6020064 C87.222019,53.6020064 88.4922114,54.9346974 88.4922114,56.5709458 C88.5270111,57.3261373 88.2560699,58.0665212 87.7365588,58.6218091 C87.2245047,59.1746291 86.5086233,59.500398 85.7504851,59.5275454 L85.6585142,59.5300134 L66.6851718,59.5300134 Z M66.6851718,72.8125003 C65.09681,72.7680773 63.8216463,71.4427901 63.8514746,69.8534327 C63.8514746,68.2097805 65.1241527,66.8820254 66.6851718,66.8820254 L85.6585142,66.8820254 C87.222019,66.8820254 88.4922114,68.2097805 88.4922114,69.8435609 C88.5220397,70.6086243 88.23867,71.3539441 87.7092161,71.909232 C87.1872192,72.4645199 86.4613951,72.7878208 85.6957997,72.8100324 L85.6585142,72.8125003 L66.6851718,72.8125003 Z" id="Fill-3" fill="#F9F9F9"></path>
                        </g>
                    </g>
                </g>
            </g>
        </g>
    </g>
</svg>