<?xml version="1.0" encoding="UTF-8"?>
<svg width="124px" height="124px" viewBox="0 0 124 124" version="1.1" xmlns="http://www.w3.org/2000/svg" xmlns:xlink="http://www.w3.org/1999/xlink">
    <title>编组 4</title>
    <defs>
        <polygon id="path-1" points="0.000604541188 0.380296296 113.6637 0.380296296 113.6637 75.9997148 0.000604541188 75.9997148"></polygon>
        <polygon id="path-3" points="0 76 114 76 114 0 0 0"></polygon>
    </defs>
    <g id="页面-1" stroke="none" stroke-width="1" fill="none" fill-rule="evenodd">
        <g id="产品-飞鸽CRM" transform="translate(-428.000000, -1967.000000)">
            <g id="编组-7" transform="translate(0.000000, 1680.000000)">
                <g id="编组-6" transform="translate(360.000000, 254.000000)">
                    <g id="编组-4" transform="translate(68.000000, 33.000000)">
                        <rect id="矩形" fill="#D8D8D8" opacity="0" x="0" y="0" width="124" height="124"></rect>
                        <g id="编组" transform="translate(5.000000, 24.000000)">
                            <g>
                                <mask id="mask-2" fill="white">
                                    <use xlink:href="#path-1"></use>
                                </mask>
                                <g id="Clip-2"></g>
                                <path d="M28.199325,22.2964926 C15.761925,22.3164556 4.763775,34.2286407 4.763775,46.6769741 C4.763775,47.0648259 4.772325,47.4498259 4.795125,47.8319741 C5.396475,59.8781963 17.409225,70.7580111 29.521725,70.7580111 L89.924625,70.7580111 C98.534475,70.7580111 107.660175,62.7471593 108.381225,54.1630852 C108.418275,53.6953815 108.438225,53.2305296 108.438225,52.7628259 C108.438225,43.6739741 99.925275,34.9301963 90.845175,34.9301963 L90.588675,34.9301963 C90.477525,34.9416037 90.389175,35.0243074 90.366375,35.1326778 C86.960625,48.8443815 73.562775,53.7780852 63.958275,53.2447889 C79.450875,49.3035296 86.516025,38.2354926 85.598325,26.9050852 C84.694875,15.7600481 75.609075,5.51904815 60.441375,5.62741852 C50.058825,5.66449259 39.342825,11.6077519 35.267325,20.4627519 C34.680225,21.788863 33.511725,22.595937 32.149425,22.595937 C31.944225,22.595937 31.739025,22.5759741 31.536675,22.5331963 C30.470775,22.3706407 29.393475,22.2936407 28.319025,22.2964926 L28.187925,22.2964926 L28.199325,22.2964926 Z M90.429075,75.9997148 L28.869075,75.9997148 C12.675375,75.7459 -0.249375,62.404937 0.004275,46.2007148 C0.249375,30.3529741 13.031625,17.5624185 28.869075,17.3143074 C29.513175,17.3143074 30.151575,17.3371222 30.792825,17.3827519 C36.421575,7.18738148 47.083425,0.39427037 59.335575,0.380011111 C78.946425,0.380011111 91.098825,13.6097519 90.879375,29.1152704 C103.131525,29.7398259 113.665125,40.305937 113.665125,52.7343074 C113.659425,65.5733444 103.259775,75.9826037 90.429075,75.9997148 L90.429075,75.9997148 Z" id="Fill-1" fill="#417BFC" mask="url(#mask-2)"></path>
                            </g>
                            <mask id="mask-4" fill="white">
                                <use xlink:href="#path-3"></use>
                            </mask>
                            <g id="Clip-4"></g>
                            <path d="M27.0788622,58 L60,58 L60,52.7519497 L27.0788622,52.7519497 L27.0788622,58 Z M27.0788622,49.118239 L60,49.118239 L60,43.8759748 L27.0788622,43.8759748 L27.0788622,49.118239 Z M27.0788622,40.2422642 L60,40.2422642 L60,35 L27.0788622,35 L27.0788622,40.2422642 Z M18,58 L23.1296846,58 L23.1296846,52.7519497 L18,52.7519497 L18,58 Z M18,49.118239 L23.1296846,49.118239 L23.1296846,43.8759748 L18,43.8759748 L18,49.118239 Z M18,40.2422642 L23.1296846,40.2422642 L23.1296846,35 L18,35 L18,40.2422642 Z" id="Fill-3" fill="#417BFC" mask="url(#mask-4)"></path>
                        </g>
                    </g>
                </g>
            </g>
        </g>
    </g>
</svg>