<?xml version="1.0" encoding="UTF-8"?>
<svg width="132px" height="132px" viewBox="0 0 132 132" version="1.1" xmlns="http://www.w3.org/2000/svg" xmlns:xlink="http://www.w3.org/1999/xlink">
    <title>编组 4</title>
    <defs>
        <polygon id="path-1" points="0 0.319918406 68.1556452 0.319918406 68.1556452 94.2096774 0 94.2096774"></polygon>
    </defs>
    <g id="页面-1" stroke="none" stroke-width="1" fill="none" fill-rule="evenodd">
        <g id="产品-飞鸽CRM-产品优势点击状态" transform="translate(-1373.000000, -280.000000)">
            <g id="编组-6" transform="translate(360.000000, 246.000000)">
                <g id="4" transform="translate(941.000000, 0.000000)">
                    <g id="编组-4" transform="translate(72.000000, 34.000000)">
                        <rect id="矩形" fill="#D8D8D8" opacity="0" x="0" y="0" width="132" height="132"></rect>
                        <g id="编组" transform="translate(31.935484, 13.838710)">
                            <g>
                                <mask id="mask-2" fill="white">
                                    <use xlink:href="#path-1"></use>
                                </mask>
                                <g id="Clip-2"></g>
                                <path d="M57.5453911,94.210241 L39.2667621,94.210241 C37.0179718,94.210241 35.1728105,92.4040076 35.1728105,90.2089127 C35.1728105,88.011 37.0179718,86.2075844 39.2667621,86.2075844 L57.5453911,86.2075844 C58.8139395,86.2075844 59.8518427,85.1931632 59.8518427,83.9504972 L59.8518427,10.6332011 C59.8518427,9.39335294 58.8139395,8.37893169 57.5453911,8.37893169 L10.5514395,8.37893169 C9.28289113,8.37893169 8.2449879,9.39335294 8.2449879,10.6332011 L8.2449879,83.8969583 C8.2449879,85.1368065 9.28289113,86.1512277 10.5514395,86.1512277 L18.9123266,86.1512277 C21.1611169,86.1512277 23.0062782,87.9546433 23.0062782,90.152556 C23.0062782,92.3504687 21.1611169,94.1510664 18.9123266,94.1510664 L10.5514395,94.1510664 C4.72764919,94.1510664 -0.000576612903,89.5326319 -0.000576612903,83.8406015 L-0.000576612903,10.6332011 C-0.000576612903,4.94117078 4.72764919,0.319918406 10.5514395,0.319918406 L57.6059355,0.319918406 C63.4268427,0.319918406 68.1579516,4.94117078 68.1579516,10.6332011 L68.1579516,83.8969583 C68.0974073,89.5861708 63.3720645,94.210241 57.5453911,94.210241" id="Fill-1" fill="#F9F9F9" mask="url(#mask-2)"></path>
                            </g>
                            <path d="M29.2869361,83.0322581 C28.1804969,83.0322581 27.0740576,82.573991 26.2587866,81.7720237 L16.5337679,71.690149 C14.9614595,70.028931 15.0196931,67.4511789 16.7084688,65.9045277 C18.3972445,64.3550123 21.0177585,64.4151598 22.590067,66.0763778 L29.5781044,73.351367 L49.5522446,56.1663532 C51.299254,54.6769854 53.919768,54.9061189 55.4338428,56.5673369 C56.8896839,58.2829741 56.714983,60.8034428 55.0262073,62.2956748 L32.0239175,82.0584406 C31.2668801,82.6885578 30.2769081,83.0322581 29.2869361,83.0322581 M54.4438708,37.4346883 C54.5050162,40.4707074 52.0562914,42.991176 48.9699082,43.0484594 C45.8864367,43.1057428 43.3212446,40.6998409 43.263011,37.6638218 L43.263011,37.4346883 C43.3212446,34.3986692 45.8864367,31.9927673 48.9699082,32.0500506 C51.9398241,32.107334 54.3885489,34.5132359 54.4438708,37.4346883 M40.4095624,37.4346883 C40.4095624,40.4707074 37.9055156,42.9338927 34.8191324,42.9338927 C31.7327492,42.9338927 29.2287025,40.4707074 29.2287025,37.4346883 C29.2287025,34.3986692 31.7327492,31.9354839 34.8191324,31.9354839 C37.9055156,31.9354839 40.4095624,34.3986692 40.4095624,37.4346883 M26.0840857,37.4346883 C26.0840857,40.4707074 23.5800389,42.9338927 20.4936557,42.9338927 C17.4072725,42.9338927 14.9032258,40.4707074 14.9032258,37.4346883 C14.9032258,34.3986692 17.4072725,31.9354839 20.4936557,31.9354839 C23.5800389,31.9354839 26.0840857,34.3986692 26.0840857,37.4346883" id="Fill-3" fill="#F9F9F9"></path>
                        </g>
                    </g>
                </g>
            </g>
        </g>
    </g>
</svg>