<?xml version="1.0" encoding="UTF-8"?>
<svg width="132px" height="132px" viewBox="0 0 132 132" version="1.1" xmlns="http://www.w3.org/2000/svg" xmlns:xlink="http://www.w3.org/1999/xlink">
    <title>编组 4</title>
    <defs>
        <polygon id="path-1" points="0.000643543845 0.404831541 120.996842 0.404831541 120.996842 80.9029222 0.000643543845 80.9029222"></polygon>
        <polygon id="path-3" points="0 80.9032258 121.354839 80.9032258 121.354839 0 0 0"></polygon>
    </defs>
    <g id="页面-1" stroke="none" stroke-width="1" fill="none" fill-rule="evenodd">
        <g id="产品-飞鸽CRM-产品优势点击状态" transform="translate(-432.000000, -280.000000)">
            <g id="编组-6" transform="translate(360.000000, 246.000000)">
                <g id="编组-4" transform="translate(72.000000, 34.000000)">
                    <rect id="矩形" fill="#D8D8D8" opacity="0" x="0" y="0" width="132" height="132"></rect>
                    <g id="编组" transform="translate(5.322581, 25.548387)">
                        <g>
                            <mask id="mask-2" fill="white">
                                <use xlink:href="#path-1"></use>
                            </mask>
                            <g id="Clip-2"></g>
                            <path d="M30.0186363,23.734976 C16.7788234,23.7562269 5.07111532,36.4369401 5.07111532,49.6883918 C5.07111532,50.1012663 5.08021694,50.511105 5.1044879,50.9179079 C5.74463468,63.7413057 18.5324008,75.3230441 31.4263524,75.3230441 L95.7262137,75.3230441 C104.891538,75.3230441 114.605993,66.7953631 115.373562,57.6574778 C115.413002,57.1595996 115.43424,56.6647573 115.43424,56.1668792 C115.43424,46.4916498 106.372067,37.1837573 96.706154,37.1837573 L96.4331056,37.1837573 C96.3147847,37.1959007 96.2207347,37.2839401 96.1964637,37.3993022 C92.5709879,51.9956319 78.3087605,57.2476391 68.0846153,56.6799366 C84.5767379,52.4844025 92.097704,40.7022986 91.1207976,28.6408971 C90.1590605,16.7768254 80.4870798,5.87511577 64.3408185,5.99047778 C53.2884266,6.02994373 41.8810718,12.3566391 37.5426363,21.7829294 C36.9176589,23.1945961 35.6737718,24.0537394 34.2235815,24.0537394 C34.0051427,24.0537394 33.786704,24.0324885 33.5712992,23.9869509 C32.4366315,23.8139079 31.2898282,23.7319401 30.1460589,23.734976 L30.0065008,23.734976 L30.0186363,23.734976 Z M96.2632089,80.9029222 L30.731596,80.9029222 C13.4931411,80.6327323 -0.26546371,66.431062 0.00455080645,49.1814061 C0.26546371,32.3112305 13.872375,18.6954778 30.731596,18.4313595 C31.4172508,18.4313595 32.0968379,18.4556462 32.7794589,18.5042197 C38.771354,7.65108351 50.1210653,0.419707168 63.1636766,0.404527957 C84.0397427,0.404527957 96.9761685,14.4878004 96.7425605,30.9936749 C109.785172,31.6585244 120.998359,42.9063201 120.998359,56.1365208 C120.992291,69.8038828 109.921696,80.8847072 96.2632089,80.9029222 L96.2632089,80.9029222 Z" id="Fill-1" fill="#FFFFFF" mask="url(#mask-2)"></path>
                        </g>
                        <mask id="mask-4" fill="white">
                            <use xlink:href="#path-3"></use>
                        </mask>
                        <g id="Clip-4"></g>
                        <path d="M28.8258856,61.7419355 L63.8709677,61.7419355 L63.8709677,56.1553013 L28.8258856,56.1553013 L28.8258856,61.7419355 Z M28.8258856,52.2871576 L63.8709677,52.2871576 L63.8709677,46.7066829 L28.8258856,46.7066829 L28.8258856,52.2871576 Z M28.8258856,42.8385393 L63.8709677,42.8385393 L63.8709677,37.2580645 L28.8258856,37.2580645 L28.8258856,42.8385393 Z M19.1612903,61.7419355 L24.6219223,61.7419355 L24.6219223,56.1553013 L19.1612903,56.1553013 L19.1612903,61.7419355 Z M19.1612903,52.2871576 L24.6219223,52.2871576 L24.6219223,46.7066829 L19.1612903,46.7066829 L19.1612903,52.2871576 Z M19.1612903,42.8385393 L24.6219223,42.8385393 L24.6219223,37.2580645 L19.1612903,37.2580645 L19.1612903,42.8385393 Z" id="Fill-3" fill="#FFFFFF" mask="url(#mask-4)"></path>
                    </g>
                </g>
            </g>
        </g>
    </g>
</svg>