<?xml version="1.0" encoding="UTF-8"?>
<svg width="132px" height="132px" viewBox="0 0 132 132" version="1.1" xmlns="http://www.w3.org/2000/svg" xmlns:xlink="http://www.w3.org/1999/xlink">
    <title>编组 4</title>
    <defs>
        <polygon id="path-1" points="0.000458692337 0.705128205 83.907906 0.705128205 83.907906 84.6144444 0.000458692337 84.6144444"></polygon>
    </defs>
    <g id="页面-1" stroke="none" stroke-width="1" fill="none" fill-rule="evenodd">
        <g id="产品-飞鸽CRM" transform="translate(-739.000000, -1960.000000)">
            <g id="编组-7" transform="translate(0.000000, 1680.000000)">
                <g id="编组-6" transform="translate(360.000000, 254.000000)">
                    <g id="2" transform="translate(313.000000, 0.000000)">
                        <g id="编组-4" transform="translate(66.000000, 26.000000)">
                            <rect id="矩形" fill="#D8D8D8" opacity="0" x="0" y="0" width="131.153846" height="131.153846"></rect>
                            <g id="编组" transform="translate(23.269231, 23.269231)">
                                <g>
                                    <mask id="mask-2" fill="white">
                                        <use xlink:href="#path-1"></use>
                                    </mask>
                                    <g id="Clip-2"></g>
                                    <path d="M77.7046581,9.79564103 L77.6694017,9.845 L52.3952564,30.1855983 C50.5501709,31.6734188 49.4948291,33.9016239 49.4948291,36.2967094 L49.4948291,76.7452137 C49.4971795,77.5091026 49.0952564,78.2283333 48.4065812,78.6490598 C48.0704701,78.8159402 47.6991026,78.9007277 47.3253846,78.9007277 C46.9563675,78.9052564 46.5944017,78.8135897 46.2676923,78.6396581 L35.3523077,72.6672222 C34.6824359,72.335812 34.2640598,71.6048291 34.2640598,70.7586752 L34.2640598,36.0734188 C34.2640598,33.7018376 33.1875641,31.4783333 31.3072222,29.969359 L6.90273504,10.4866667 L6.04717949,9.78623932 C5.57474359,9.11871795 5.52068376,8.25376068 5.89205128,7.56273504 C6.23521368,6.80589744 6.94974359,6.35226496 7.80764957,6.35226496 L76.0052991,6.35226496 C76.818547,6.35696581 77.5589316,6.82 77.9138462,7.54863248 C78.2711111,8.27726496 78.1911966,9.14457265 77.7046581,9.79564103 M83.2211111,5.36978632 C81.9330769,2.53752137 79.1055128,0.706538462 76.01,0.706538462 L7.6807265,0.70418578 C4.61811966,0.701837607 1.84931624,2.53752137 0.66,5.36038462 C-0.606880342,8.30547009 -0.0216239316,11.6125214 2.18307692,13.8172222 L2.42517094,14.1086752 L27.6546581,34.3294017 C28.1788034,34.7336752 28.4937607,35.3565385 28.5055128,36.0170085 L28.5055128,70.7093162 C28.4796581,73.5885897 30.0591453,76.2445726 32.6023077,77.5960684 L43.5247436,83.6813248 C44.7305128,84.3088889 45.9715385,84.6144444 47.3183333,84.6144444 L47.3253846,84.6144444 C49.4642735,84.6144444 51.4574359,83.7894444 52.9382051,82.2922222 C54.3931197,80.8185043 55.1781624,78.8511966 55.1523077,76.7452137 L55.1523077,36.2332479 C55.1570085,35.5868803 55.4414103,34.9734188 55.935,34.5526923 L81.5241026,14.0945726 L81.8273077,13.7984188 C83.9567949,11.5302564 84.5091453,8.20205128 83.2211111,5.36978632" id="Fill-1" fill="#417BFC" mask="url(#mask-2)"></path>
                                </g>
                                <path d="M62.9645396,43.6671921 C61.4671459,43.6275779 60.2631286,42.378564 60.2889458,40.8802135 C60.2889458,39.3305974 61.490616,38.0769231 62.9645396,38.0769231 L80.8792834,38.0769231 C82.3555541,38.0769231 83.5548773,39.3305974 83.5548773,40.8708925 C83.5830415,41.6049211 83.3295641,42.2853541 82.8413856,42.8096602 C82.3532071,43.3339664 81.6866556,43.6368989 80.9661229,43.6648619 L80.8769364,43.6671921 L62.9645396,43.6671921 Z M62.9645396,56.2085961 C61.4671459,56.1689818 60.2631286,54.9176377 60.2889458,53.4216174 C60.2889458,51.8696711 61.490616,50.6113363 62.9645396,50.6113363 L80.8792834,50.6113363 C82.3555541,50.6113363 83.5548773,51.8696711 83.5548773,53.4146267 C83.5877355,54.1276831 83.3319112,54.826758 82.8413856,55.3510642 C82.3579011,55.8730401 81.6819616,56.1806331 80.9661229,56.2062658 L80.8792834,56.2085961 L62.9645396,56.2085961 Z M62.9645396,68.75 C61.4647989,68.7080555 60.2607816,67.4567114 60.2889458,65.9560306 C60.2889458,64.4040843 61.490616,63.1504099 62.9645396,63.1504099 L80.8792834,63.1504099 C82.3555541,63.1504099 83.5548773,64.4040843 83.5548773,65.9467096 C83.5830415,66.669087 83.3154821,67.3728224 82.8155685,67.8971286 C82.3226959,68.4214348 81.6373684,68.7266975 80.9144886,68.7476698 L80.8792834,68.75 L62.9645396,68.75 Z" id="Fill-3" fill="#417BFC"></path>
                            </g>
                        </g>
                    </g>
                </g>
            </g>
        </g>
    </g>
</svg>