<?xml version="1.0" encoding="UTF-8"?>
<svg width="87px" height="86px" viewBox="0 0 87 86" version="1.1" xmlns="http://www.w3.org/2000/svg" xmlns:xlink="http://www.w3.org/1999/xlink">
    <title>编组 25</title>
    <g id="页面-1" stroke="none" stroke-width="1" fill="none" fill-rule="evenodd">
        <g id="产品-能力开放平台S" transform="translate(-1072.000000, -295.000000)">
            <g id="编组-25" transform="translate(1072.000000, 295.000000)">
                <polygon id="矩形" points="1 0 87 0 87 86 1 86 1 56.4588129"></polygon>
                <g id="编组-24" fill="#F9F9F9">
                    <path d="M69.374026,0 L69.374026,4.52631579 L82.4805195,4.52631579 L82.4805195,17.4263158 L87,17.4263158 L87,0 L69.374026,0 Z M0,0 L0,17.4263158 L4.74545455,17.4263158 L4.74545455,4.52631579 L17.8519481,4.52631579 L17.8519481,0 L0,0 Z M82.4805195,68.5714211 L82.4805195,81.4736842 L69.374026,81.4736842 L69.374026,86 L87,86 L87,68.5714211 L82.4805195,68.5714211 Z M0,68.5714211 L0,86 L17.8519481,86 L17.8519481,81.4736842 L4.74545455,81.4736842 L4.74545455,68.5714211 L0,68.5714211 Z" id="Fill-1"></path>
                    <g id="编组" transform="translate(19.000000, 19.000000)">
                        <path d="M4.0619469,33.266055 C7.22123894,35.2889908 12.8628319,36.412844 18.9557522,36.412844 L20.5353982,36.412844 C20.7610619,37.7614679 21.2123894,39.1123394 22.1150442,40.2361927 C22.340708,40.4587156 22.340708,40.6834862 22.5663717,40.9082569 C21.4380531,40.9082569 20.3097345,41.1330275 19.4070796,41.1330275 L19.1814159,41.1330275 C14.8938053,41.1330275 11.0575221,40.4587156 8.12389381,39.559633 C5.64159292,38.6605505 4.0619469,37.5366972 4.0619469,36.412844 L4.0619469,33.266055 Z M30.0132743,9.66513761 C27.079646,10.5642202 23.2433628,11.0137615 19.1814159,11.0137615 C9.47787611,11.0137615 4.51327434,8.5412844 4.51327434,7.64220183 C4.51327434,7.19266055 5.4159292,6.29357798 8.12389381,5.61926606 C11.0575221,4.72018349 14.8938053,4.2706422 18.9557522,4.2706422 C28.659292,4.2706422 33.6261504,6.74311927 33.6261504,7.64220183 C33.6261504,7.86697248 32.7212389,8.76605505 30.0132743,9.66513761 L30.0132743,9.66513761 Z M20.9867257,30.793578 L20.9867257,31.245367 C20.9867257,31.4678899 20.7610619,31.6926606 20.7610619,32.1422018 L19.4070796,32.1422018 C15.3451327,32.1422018 11.5088496,31.4678899 8.57522124,30.1215138 C6.09292035,28.9976606 4.51327434,27.646789 4.51327434,26.2981651 L4.51327434,22.4770642 C5.86725664,23.6009174 7.89823009,24.5 10.1548673,25.1743119 C12.8628319,26.0733945 16.2477876,26.2981651 19.4070796,26.2981651 C20.5353982,26.2981651 21.8893805,26.2981651 23.0176991,26.0733945 C21.8893805,27.646789 21.2123894,29.2201835 20.9867257,30.793578 L20.9867257,30.793578 Z M18.9557522,15.733945 C22.1150442,15.733945 25.2743363,15.5091743 27.9823009,14.8348624 C30.4646018,14.3853211 32.2699115,13.4862385 33.6261504,12.587156 L33.6261504,15.733945 C33.6261504,17.0825688 32.0442478,18.4311927 29.5619469,19.5550459 C26.6283186,20.9036697 22.7920354,21.5779817 18.7300885,21.5779817 C14.6681416,21.5779817 10.8318584,20.9036697 7.89823009,19.5550459 C5.4159292,18.4311927 3.83628319,17.0825688 3.83628319,15.733945 L3.83628319,12.587156 C5.19026549,13.4862385 7.22123894,14.3853211 9.47787611,14.8348624 C12.6371681,15.2844037 15.7964602,15.733945 18.9557522,15.733945 L18.9557522,15.733945 Z M35.6548673,45.4036697 C32.4978319,45.4036697 29.5619469,44.0550459 27.3053097,41.8073394 C26.8539823,41.3600459 26.4026549,40.6834862 25.9513274,40.2361927 C24.8230088,38.4357798 24.1460177,36.412844 24.1460177,34.1651376 C24.1460177,33.4930734 24.1460177,32.8165138 24.3716814,32.1422018 C24.3716814,31.6926606 24.5973451,31.0183486 24.8230088,30.5688073 C26.1769912,26.5229358 29.7876106,23.6009174 34.0752212,23.1513761 L35.8827876,23.1513761 C38.8141593,23.3761468 41.5243805,24.5 43.5530973,26.5229358 C45.5840708,28.5458716 46.7123894,31.4678899 46.7123894,34.3899083 C46.7123894,37.3119266 45.5840708,40.2361927 43.5530973,42.2568807 C41.5243805,44.2798165 38.5884956,45.4036697 35.6548673,45.4036697 L35.6548673,45.4036697 Z M46.9380531,24.0504587 C44.4557522,21.353211 40.8451327,19.5550459 37.2345133,19.1055046 L36.7831858,19.1055046 L37.2345133,18.6559633 C37.6858407,17.7568807 37.9115044,16.8577982 37.9115044,15.9587156 L37.9115044,10.5642202 C37.9115044,9.66513761 37.6858407,8.99082569 37.2345133,8.31651376 C37.460177,7.86697248 37.460177,7.64220183 37.460177,7.19266055 C37.460177,6.06880734 36.7831858,4.94495413 35.6548673,4.04587156 C34.754469,3.14678899 33.1725664,2.47247706 31.3695133,2.02293578 C27.9823009,0.674311927 23.4690265,0 18.9557522,0 C14.4424779,0 9.92920354,0.674311927 6.54424779,1.5733945 C4.73893805,2.24770642 3.15929204,2.92201835 2.25663717,3.59633028 C1.12831858,4.49541284 0.451327434,5.61926606 0.451327434,6.74311927 C0.451327434,7.19266055 0.451327434,7.64220183 0.67699115,7.86697248 C0.225663717,8.76605505 0,9.44036697 0,10.3394495 L0,15.733945 C0,16.6330275 0.225663717,17.5321101 0.902654867,18.4311927 L0.902654867,18.6559633 C0.451327434,19.5550459 0.225663717,20.4541284 0.225663717,21.1284404 L0.225663717,26.2981651 C0.225663717,27.1972477 0.451327434,27.8738073 0.902654867,28.7706422 C0.451327434,29.6697248 0.225663717,30.5688073 0.225663717,31.245367 L0.225663717,36.412844 C0.225663717,38.8853211 2.25663717,41.1330275 5.86725664,42.706422 C9.25221239,44.2798165 13.9911504,45.1788991 18.9557522,45.1788991 C20.7610619,45.1788991 23.920354,44.9541284 24.8230088,44.7316055 C26.1769912,46.0779817 27.7566372,47.2018349 29.5619469,47.8761468 C31.3695133,48.7752294 33.3982301,49 35.6548673,49 C44.0044248,49 51,42.2568807 51,33.940367 C50.7743363,30.5688073 49.4226106,26.9724771 46.9380531,24.0504587 L46.9380531,24.0504587 Z" id="Fill-2"></path>
                        <path d="M41.973,32.5921927 C41.7473363,32.367422 41.2960088,32.1426514 40.8446814,32.1426514 C40.1676903,32.1426514 39.7163628,32.367422 39.267292,32.8169633 L38.1389735,34.3903578 L38.1389735,26.2986147 C38.1389735,25.1747615 37.2340619,24.5004495 36.3314071,24.5004495 C35.2030885,24.5004495 34.5260973,25.3995321 34.5260973,26.2986147 L34.5260973,34.3903578 L33.3977788,32.8169633 C32.9464513,32.367422 32.4973805,32.1426514 31.8181327,32.1426514 C31.3690619,32.1426514 30.9177345,32.367422 30.6898142,32.5921927 C30.2407434,32.8169633 30.012823,33.2665046 30.012823,33.7160459 C30.012823,34.1655872 30.012823,34.6151284 30.4641504,35.0646697 L34.9774248,41.1334771 C35.4310088,41.5830183 35.8823363,41.807789 36.5593274,41.807789 C37.0106549,41.807789 37.4597257,41.5830183 37.687646,41.3582477 C37.9110531,41.3582477 37.9110531,41.1334771 38.1389735,40.9087064 L42.6522478,34.8398991 C42.8756549,34.3903578 43.1013186,33.9408165 43.1013186,33.4912752 C42.6522478,33.2665046 42.4243274,32.8169633 41.973,32.5921927" id="Fill-4"></path>
                    </g>
                </g>
            </g>
        </g>
    </g>
</svg>