<?xml version="1.0" encoding="UTF-8"?>
<svg width="90px" height="86px" viewBox="0 0 90 86" version="1.1" xmlns="http://www.w3.org/2000/svg" xmlns:xlink="http://www.w3.org/1999/xlink">
    <title>编组 23</title>
    <g id="页面-1" stroke="none" stroke-width="1" fill="none" fill-rule="evenodd">
        <g id="产品-能力开放平台S" transform="translate(-760.000000, -295.000000)">
            <g id="编组-3备份" transform="translate(662.000000, 261.000000)">
                <g id="编组-23" transform="translate(98.000000, 34.000000)">
                    <rect id="矩形" x="0" y="0" width="86" height="86"></rect>
                    <g id="编组-22" transform="translate(7.000000, 0.000000)">
                        <polygon id="Fill-1" fill="#417BFC" points="60.0159771 40.4096386 45.987821 35.7328227 42.4819277 22.8755892 59.138358 6.21686747 63.2308583 19.6584165 76.6746988 23.7509168"></polygon>
                        <path d="M60.8588757,0 L39.2097691,21.2212908 L43.047948,35.0058454 L35.2289157,42.6649501 L35.2289157,50.7710843 L47.744513,38.5064299 L61.1746308,42.894196 L82.8915663,21.5949616 L66.0021757,16.5561372 L60.8588757,0 Z M48.4695804,32.6973394 L45.7423917,22.9222952 L58.098942,10.8066506 L61.3102886,21.1502246 L71.8635263,24.2977705 L59.5841606,36.333179 L48.4695804,32.6973394 Z" id="Fill-2" fill="#F9F9F9"></path>
                        <polygon id="Fill-3" fill="#F9F9F9" points="0 25.4352808 0 65.8102508 35.2047671 86 66.313253 68.1604762 66.313253 62.0335881 66.1331716 61.7256587 35.2047671 79.4655583 5.69877737 62.5452942 5.69877737 28.7025016 33.5110905 12.7535733 33.5110905 6.21686747"></polygon>
                        <polygon id="Fill-4" fill="#F9F9F9" points="50.7710843 52.1232434 50.7641716 52.1140503 35.8326293 60.7142418 22.3389392 52.943732 22.3389392 37.4050108 34.3901685 30.4664811 34.3901685 23.8313253 16.5783133 34.0885821 16.5783133 56.2624591 35.8326293 67.3493976 50.7710843 58.7469078"></polygon>
                    </g>
                </g>
            </g>
        </g>
    </g>
</svg>