<?xml version="1.0" encoding="UTF-8"?>
<svg width="83px" height="83px" viewBox="0 0 83 83" version="1.1" xmlns="http://www.w3.org/2000/svg" xmlns:xlink="http://www.w3.org/1999/xlink">
    <title>编组 23</title>
    <g id="页面-1" stroke="none" stroke-width="1" fill="none" fill-rule="evenodd">
        <g id="产品-能力开放平台N" transform="translate(-769.000000, -1900.000000)">
            <g id="编组-3备份" transform="translate(675.000000, 1868.000000)">
                <g id="编组-23" transform="translate(94.000000, 32.000000)">
                    <rect id="矩形" x="0" y="0" width="83" height="83"></rect>
                    <g id="编组-22" transform="translate(2.000000, 0.000000)" fill="#417BFC">
                        <polygon id="Fill-1" points="57.9223965 39 44.3835947 34.4863289 41 22.0776035 57.075392 6 61.0251307 18.9726578 74 22.9223965"></polygon>
                        <path d="M58.7358916,0 L37.8419865,20.4810132 L41.5462754,33.7847112 L34,41.1766379 L34,49 L46.0790068,37.1631824 L59.0406321,41.3978868 L80,20.841649 L63.6997743,15.9785976 L58.7358916,0 Z M46.778781,31.5567345 L44.1467269,22.1226803 L56.0722348,10.4296744 L59.1715576,20.4124261 L69.3566591,23.4501738 L57.5056433,35.0657425 L46.778781,31.5567345 Z" id="Fill-2"></path>
                        <polygon id="Fill-3" points="0 24.5480035 0 63.5145444 33.9766938 83 64 65.7827851 64 59.8696257 63.8262005 59.5724381 33.9766938 76.693504 5.49998281 60.3634816 5.49998281 27.7012515 32.3420989 12.3086812 32.3420989 6"></polygon>
                        <polygon id="Fill-4" points="49 50.3049908 48.9933284 50.2961183 34.5826538 58.5963031 21.5596738 51.0968577 21.5596738 36.1001848 33.1905115 29.4036969 33.1905115 23 16 32.8994455 16 54.2998152 34.5826538 65 49 56.697597"></polygon>
                    </g>
                </g>
            </g>
        </g>
    </g>
</svg>