<?xml version="1.0" encoding="UTF-8"?>
<svg width="86px" height="86px" viewBox="0 0 86 86" version="1.1" xmlns="http://www.w3.org/2000/svg" xmlns:xlink="http://www.w3.org/1999/xlink">
    <title>编组 18</title>
    <defs>
        <polygon id="path-1" points="0.361433133 0.541469102 20.6323066 0.541469102 20.6323066 73.7671033 0.361433133 73.7671033"></polygon>
        <polygon id="path-3" points="0 0.585939759 83.3905735 0.585939759 83.3905735 6.21686747 0 6.21686747"></polygon>
    </defs>
    <g id="页面-1" stroke="none" stroke-width="1" fill="none" fill-rule="evenodd">
        <g id="产品-能力开放平台S" transform="translate(-450.000000, -295.000000)">
            <g id="编组-3" transform="translate(350.000000, 261.000000)">
                <g id="编组-18" transform="translate(100.000000, 34.000000)">
                    <rect id="矩形" x="0" y="0" width="86" height="86"></rect>
                    <g id="编组-20" transform="translate(1.036145, 0.000000)">
                        <path d="M9.32410941,44.4798466 C9.32410941,42.9729624 10.4872991,41.7432644 11.9150668,41.7432644 L17.0945979,41.7432644 C18.5223655,41.7432644 19.6855552,42.9729624 19.6855552,44.4798466 L19.6855552,66.3851034 C19.6855552,67.8945074 18.5223655,69.1242055 17.0945979,69.1242055 L11.9150668,69.1242055 C10.4872991,69.1242055 9.32410941,67.8945074 9.32410941,66.3851034 L9.32410941,44.4798466 Z M11.9150668,74.6024096 L17.0945979,74.6024096 C21.3802844,74.6024096 24.8674699,70.920875 24.8674699,66.3851034 L24.8674699,44.4798466 C24.8674699,39.9516346 21.3802844,36.2650602 17.0945979,36.2650602 L11.9150668,36.2650602 C7.62938018,36.2650602 4.14457831,39.9516346 4.14457831,44.4798466 L4.14457831,66.3851034 C4.14457831,70.920875 7.62938018,74.6024096 11.9150668,74.6024096 L11.9150668,74.6024096 Z" id="Fill-1" fill="#F9F9F9"></path>
                        <path d="M35.2277239,29.6873656 C35.2277239,28.2310426 36.3909136,27.0445891 37.8186812,27.0445891 L43.0005959,27.0445891 C44.42598,27.0445891 45.5915532,28.2310426 45.5915532,29.6873656 L45.5915532,66.6740802 C45.5915532,68.1304032 44.42598,69.3168567 43.0005959,69.3168567 L37.8186812,69.3168567 C36.3909136,69.3168567 35.2277239,68.1304032 35.2277239,66.6740802 L35.2277239,29.6873656 Z M37.8186812,74.6024096 L43.0005959,74.6024096 C47.2862825,74.6024096 50.7710843,71.050343 50.7710843,66.6740802 L50.7710843,29.6873656 C50.7710843,25.3159653 47.2862825,21.7590361 43.0005959,21.7590361 L37.8186812,21.7590361 C33.5329946,21.7590361 30.0481928,25.3159653 30.0481928,29.6873656 L30.0481928,66.6740802 C30.0481928,71.050343 33.5329946,74.6024096 37.8186812,74.6024096 L37.8186812,74.6024096 Z" id="Fill-3" fill="#F9F9F9"></path>
                        <g id="编组" transform="translate(52.843373, 0.000000)">
                            <mask id="mask-2" fill="white">
                                <use xlink:href="#path-1"></use>
                            </mask>
                            <g id="Clip-6"></g>
                            <path d="M5.42973434,8.38651411 C5.42973434,6.94500303 6.56742108,5.77061671 7.96388494,5.77061671 L13.0298548,5.77061671 C14.4239873,5.77061671 15.5640054,6.94500303 15.5640054,8.38651411 L15.5640054,65.9218176 C15.5640054,67.3609222 14.4239873,68.537715 13.0298548,68.537715 L7.96388494,68.537715 C6.56742108,68.537715 5.42973434,67.3609222 5.42973434,65.9218176 L5.42973434,8.38651411 Z M7.96388494,73.7671033 L13.0298548,73.7671033 C17.2215777,73.7671033 20.6323066,70.2535705 20.6323066,65.9218176 L20.6323066,8.38651411 C20.6323066,4.05957435 17.2215777,0.541228449 13.0298548,0.541228449 L7.96388494,0.541228449 C3.77216205,0.541228449 0.361433133,4.05957435 0.361433133,8.38651411 L0.361433133,65.9218176 C0.361433133,70.2535705 3.77216205,73.7671033 7.96388494,73.7671033 L7.96388494,73.7671033 Z" id="Fill-5" fill="#F9F9F9" mask="url(#mask-2)"></path>
                        </g>
                        <g id="编组" transform="translate(0.000000, 79.783133)">
                            <mask id="mask-4" fill="white">
                                <use xlink:href="#path-3"></use>
                            </mask>
                            <g id="Clip-8"></g>
                            <path d="M80.7864165,0.585939759 L2.60655491,0.585939759 C1.16539621,0.585939759 0,1.85003614 0,3.40166265 C0,4.96106024 1.16539621,6.21738554 2.60655491,6.21738554 L80.7864165,6.21738554 C82.2275752,6.21738554 83.3929714,4.96106024 83.3929714,3.40166265 C83.3929714,1.85003614 82.2275752,0.585939759 80.7864165,0.585939759" id="Fill-7" fill="#F9F9F9" mask="url(#mask-4)"></path>
                        </g>
                    </g>
                </g>
            </g>
        </g>
    </g>
</svg>