<?xml version="1.0" encoding="UTF-8"?>
<svg width="83px" height="83px" viewBox="0 0 83 83" version="1.1" xmlns="http://www.w3.org/2000/svg" xmlns:xlink="http://www.w3.org/1999/xlink">
    <title>编组 27</title>
    <defs>
        <polygon id="path-1" points="0.00111666667 0.828427978 65.9525667 0.828427978 65.9525667 81.7382271 0.00111666667 81.7382271"></polygon>
    </defs>
    <g id="页面-1" stroke="none" stroke-width="1" fill="none" fill-rule="evenodd">
        <g id="产品-能力开放平台N" transform="translate(-1379.000000, -1900.000000)">
            <g id="编组-3备份-3" transform="translate(1285.000000, 1868.000000)">
                <g id="编组-27" transform="translate(94.000000, 32.000000)">
                    <rect id="矩形" x="0" y="0" width="83" height="83"></rect>
                    <g id="编组-26" transform="translate(9.000000, 0.000000)">
                        <g id="编组">
                            <mask id="mask-2" fill="white">
                                <use xlink:href="#path-1"></use>
                            </mask>
                            <g id="Clip-2"></g>
                            <path d="M17.54395,67.8361011 L32.8891833,76.215374 L48.4086167,67.818428 C52.2745167,65.3000069 55.4748833,61.8471191 57.6747167,57.8176454 C59.8901833,53.761662 61.0582167,49.1887396 61.0582167,44.5804709 L61.0582167,11.321849 L32.96735,5.76364958 L4.87648333,11.321849 L4.87648333,44.5893075 C4.87648333,49.195367 6.04675,53.7793352 8.26221667,57.826482 C10.4776833,61.8559557 13.6802833,65.3154709 17.54395,67.8361011 L17.54395,67.8361011 Z M32.88025,81.7382271 L15.0225167,71.978241 L14.94435,71.9274307 C10.3727167,68.9671814 6.57828333,64.8846884 3.97868333,60.1306163 C1.37908333,55.3654986 0.00111666667,49.9994945 0.00111666667,44.5893075 L0.00111666667,7.35202216 L32.9762833,0.828427978 L65.9536833,7.35202216 L65.9536833,44.5804709 C65.9536833,49.9906579 64.5757167,55.3588712 61.9761167,60.1217798 C59.3742833,64.8758518 55.57985,68.9583449 51.0082167,71.9185942 L50.93005,71.9694044 L50.84295,72.0135873 L32.88025,81.7382271 Z" id="Fill-1" fill="#417BFC" mask="url(#mask-2)"></path>
                        </g>
                        <polygon id="Fill-3" fill="#417BFC" points="32.5430248 50.4705882 19.4117647 37.4008296 22.9330602 33.8869407 32.5430248 43.4428105 47.9107525 28.1470588 51.4411765 31.6609477"></polygon>
                    </g>
                </g>
            </g>
        </g>
    </g>
</svg>