<?xml version="1.0" encoding="UTF-8"?>
<svg width="83px" height="83px" viewBox="0 0 83 83" version="1.1" xmlns="http://www.w3.org/2000/svg" xmlns:xlink="http://www.w3.org/1999/xlink">
    <title>编组 25</title>
    <g id="页面-1" stroke="none" stroke-width="1" fill="none" fill-rule="evenodd">
        <g id="产品-能力开放平台N" transform="translate(-1079.000000, -1900.000000)">
            <g id="编组-25" transform="translate(1079.000000, 1900.000000)">
                <rect id="矩形" x="0" y="0" width="83" height="83"></rect>
                <g id="编组-24" transform="translate(0.000000, 0.000000)" fill="#417BFC">
                    <path d="M66.1844156,0 L66.1844156,4.31762546 L78.6883117,4.31762546 L78.6883117,16.622858 L83,16.622858 L83,0 L66.1844156,0 Z M0,0 L0,16.622858 L4.52727273,16.622858 L4.52727273,4.31762546 L17.0311688,4.31762546 L17.0311688,0 L0,0 Z M78.6883117,65.4098669 L78.6883117,77.7172583 L66.1844156,77.7172583 L66.1844156,82.0348837 L83,82.0348837 L83,65.4098669 L78.6883117,65.4098669 Z M0,65.4098669 L0,82.0348837 L17.0311688,82.0348837 L17.0311688,77.7172583 L4.52727273,77.7172583 L4.52727273,65.4098669 L0,65.4098669 Z" id="Fill-1"></path>
                    <g id="编组" transform="translate(17.785714, 17.790698)">
                        <path d="M3.86603002,31.9150021 C6.8732764,33.8558055 12.2433592,34.9340296 18.0430487,34.9340296 L19.5466718,34.9340296 C19.7614752,36.2278985 20.1910818,37.5239239 21.050295,38.602148 C21.2650983,38.8156364 21.2650983,39.0312812 21.4799017,39.246926 C20.4058851,39.246926 19.3318685,39.4625708 18.4726553,39.4625708 L18.257852,39.4625708 C14.176589,39.4625708 10.5249327,38.8156364 7.73248965,37.9530571 C5.36965321,37.0904778 3.86603002,36.0122537 3.86603002,34.9340296 L3.86603002,31.9150021 Z M28.568411,9.27229598 C25.7759679,10.1348753 22.1243116,10.5661649 18.257852,10.5661649 C9.02130952,10.5661649 4.29563665,8.19407188 4.29563665,7.3314926 C4.29563665,6.90020296 5.1548499,6.03762368 7.73248965,5.39068922 C10.5249327,4.52810994 14.176589,4.0968203 18.0430487,4.0968203 C27.2795911,4.0968203 32.007412,6.46891332 32.007412,7.3314926 C32.007412,7.54713742 31.1460507,8.4097167 28.568411,9.27229598 L28.568411,9.27229598 Z M19.9762785,29.5429091 L19.9762785,29.9763552 C19.9762785,30.1898436 19.7614752,30.4054884 19.7614752,30.836778 L18.4726553,30.836778 C14.6061957,30.836778 10.9545393,30.1898436 8.16209627,28.8981311 C5.79925983,27.819907 4.29563665,26.5238816 4.29563665,25.2300127 L4.29563665,21.5640507 C5.58445652,22.6422748 7.51768634,23.5048541 9.66571946,24.1517886 C12.2433592,25.0143679 15.4654089,25.2300127 18.4726553,25.2300127 C19.5466718,25.2300127 20.8354917,25.2300127 21.9095083,25.0143679 C20.8354917,26.5238816 20.1910818,28.0333953 19.9762785,29.5429091 L19.9762785,29.5429091 Z M18.0430487,15.0947061 C21.050295,15.0947061 24.0575414,14.8790613 26.6351812,14.2321268 C28.9980176,13.8008372 30.7164441,12.9382579 32.007412,12.0756786 L32.007412,15.0947061 C32.007412,16.3885751 30.5016408,17.682444 28.1388043,18.7606681 C25.3463613,20.054537 21.694705,20.7014715 17.8282453,20.7014715 C13.9617857,20.7014715 10.3101294,20.054537 7.51768634,18.7606681 C5.1548499,17.682444 3.65122671,16.3885751 3.65122671,15.0947061 L3.65122671,12.0756786 C4.94004658,12.9382579 6.8732764,13.8008372 9.02130952,14.2321268 C12.0285559,14.6634165 15.0358023,15.0947061 18.0430487,15.0947061 L18.0430487,15.0947061 Z M33.9384938,43.5598224 C30.9333954,43.5598224 28.1388043,42.2659535 25.9907712,40.1095053 C25.5611646,39.6803721 25.131558,39.0312812 24.7019513,38.602148 C23.6279348,36.874833 22.9835248,34.9340296 22.9835248,32.7775814 C22.9835248,32.1328034 22.9835248,31.4837125 23.1983282,30.836778 C23.1983282,30.4054884 23.4131315,29.7585539 23.6279348,29.3272643 C24.9167547,25.4456575 28.3536077,22.6422748 32.4348706,22.2109852 L34.1554451,22.2109852 C36.9457402,22.42663 39.525528,23.5048541 41.4566097,25.4456575 C43.3898395,27.3864609 44.4638561,30.1898436 44.4638561,32.9932262 C44.4638561,35.7966089 43.3898395,38.602148 41.4566097,40.5407949 C39.525528,42.4815983 36.7309369,43.5598224 33.9384938,43.5598224 L33.9384938,43.5598224 Z M44.6786594,23.0735645 C42.315823,20.4858266 38.87897,18.7606681 35.442117,18.3293784 L35.0125104,18.3293784 L35.442117,17.8980888 C35.8717236,17.0355095 36.0865269,16.1729302 36.0865269,15.310351 L36.0865269,10.1348753 C36.0865269,9.27229598 35.8717236,8.62536152 35.442117,7.97842706 C35.6569203,7.54713742 35.6569203,7.3314926 35.6569203,6.90020296 C35.6569203,5.82197886 35.0125104,4.74375476 33.9384938,3.88117548 C33.0814286,3.01859619 31.5756573,2.37166173 29.8593789,1.94037209 C26.6351812,0.646503171 22.3391149,-0.00043128964 18.0430487,-0.00043128964 C13.7469824,-0.00043128964 9.45091615,0.646503171 6.22886646,1.50908245 C4.51043996,2.15601691 3.00681677,2.80295137 2.14760352,3.44988584 C1.07358696,4.31246512 0.429177019,5.39068922 0.429177019,6.46891332 C0.429177019,6.90020296 0.429177019,7.3314926 0.643980331,7.54713742 C0.214373706,8.4097167 -0.000429606625,9.05665116 -0.000429606625,9.91923044 L-0.000429606625,15.0947061 C-0.000429606625,15.9572854 0.214373706,16.8198647 0.858783644,17.682444 L0.858783644,17.8980888 C0.429177019,18.7606681 0.214373706,19.6232474 0.214373706,20.2701818 L0.214373706,25.2300127 C0.214373706,26.092592 0.429177019,26.7416829 0.858783644,27.6021057 C0.429177019,28.464685 0.214373706,29.3272643 0.214373706,29.9763552 L0.214373706,34.9340296 C0.214373706,37.3061226 2.14760352,39.4625708 5.58445652,40.9720846 C8.80650621,42.4815983 13.3173758,43.3441776 18.0430487,43.3441776 C19.7614752,43.3441776 22.7687215,43.1285328 23.6279348,42.9150444 C24.9167547,44.2067569 26.4203778,45.284981 28.1388043,45.9319154 C29.8593789,46.7944947 31.7904607,47.0101395 33.9384938,47.0101395 C41.8862164,47.0101395 48.545119,40.5407949 48.545119,32.5619366 C48.3303157,29.3272643 47.0436439,25.8769471 44.6786594,23.0735645 L44.6786594,23.0735645 Z" id="Fill-2"></path>
                        <path d="M39.9525569,31.2684989 C39.7377536,31.0528541 39.308147,30.8372093 38.8785404,30.8372093 C38.2341304,30.8372093 37.8045238,31.0528541 37.3770652,31.4841438 L36.3030487,32.9936575 L36.3030487,25.230444 C36.3030487,24.1522199 35.4416874,23.5052854 34.5824741,23.5052854 C33.5084576,23.5052854 32.8640476,24.3678647 32.8640476,25.230444 L32.8640476,32.9936575 L31.7900311,31.4841438 C31.3604244,31.0528541 30.9329658,30.8372093 30.2864079,30.8372093 C29.8589493,30.8372093 29.4293427,31.0528541 29.2123913,31.2684989 C28.7849327,31.4841438 28.5679814,31.9154334 28.5679814,32.346723 C28.5679814,32.7780127 28.5679814,33.2093023 28.997588,33.640592 L33.2936542,39.4630021 C33.7254089,39.8942918 34.1550155,40.1099366 34.7994255,40.1099366 C35.2290321,40.1099366 35.6564907,39.8942918 35.873442,39.6786469 C36.0860973,39.6786469 36.0860973,39.4630021 36.3030487,39.2473573 L40.5991149,33.4249471 C40.8117702,32.9936575 41.0265735,32.5623679 41.0265735,32.1310782 C40.5991149,31.9154334 40.3821636,31.4841438 39.9525569,31.2684989" id="Fill-4"></path>
                    </g>
                </g>
            </g>
        </g>
    </g>
</svg>