<?xml version="1.0" encoding="UTF-8"?>
<svg width="86px" height="86px" viewBox="0 0 86 86" version="1.1" xmlns="http://www.w3.org/2000/svg" xmlns:xlink="http://www.w3.org/1999/xlink">
    <title>编组 27</title>
    <defs>
        <polygon id="path-1" points="0.00115702811 0.858371158 68.3363944 0.858371158 68.3363944 84.6926209 0.00115702811 84.6926209"></polygon>
    </defs>
    <g id="页面-1" stroke="none" stroke-width="1" fill="none" fill-rule="evenodd">
        <g id="产品-能力开放平台S" transform="translate(-1385.000000, -295.000000)">
            <g id="编组-3备份-3" transform="translate(1285.000000, 261.000000)">
                <g id="编组-27" transform="translate(100.000000, 34.000000)">
                    <rect id="矩形" x="0" y="0" width="86" height="86"></rect>
                    <g id="编组-26" transform="translate(8.000000, 0.000000)">
                        <g id="编组">
                            <mask id="mask-2" fill="white">
                                <use xlink:href="#path-1"></use>
                            </mask>
                            <g id="Clip-2"></g>
                            <path d="M18.1780687,70.2880084 L34.077949,78.9701465 L50.1583257,70.2696965 C54.163957,67.6602481 57.4799996,64.0825572 59.759345,59.9074398 C62.0548888,55.7048547 63.2651402,50.9666459 63.2651402,46.1918132 L63.2651402,11.7310725 L34.158941,5.97197427 L5.05274177,11.7310725 L5.05274177,46.2009692 C5.05274177,50.9735128 6.26530723,55.7231666 8.560851,59.9165958 C10.8563948,64.0917131 14.1747514,67.6762711 18.1780687,70.2880084 L18.1780687,70.2880084 Z M34.0686928,84.6926209 L15.5654992,74.5798642 L15.4845072,74.5272174 C10.7476341,71.4599711 6.81605261,67.2299181 4.12249116,62.3040121 C1.42892972,57.3666612 0.00115702811,51.8067051 0.00115702811,46.2009692 L0.00115702811,7.6177579 L34.1681972,0.858371158 L68.3375514,7.6177579 L68.3375514,46.1918132 C68.3375514,51.7975491 66.9097787,57.3597942 64.2162173,62.2948562 C61.5203418,67.2207621 57.5887602,71.4508152 52.8518871,74.5180614 L52.7708952,74.5707082 L52.680647,74.616488 L34.0686928,84.6926209 Z" id="Fill-1" fill="#F9F9F9" mask="url(#mask-2)"></path>
                        </g>
                        <polygon id="Fill-3" fill="#F9F9F9" points="33.7192787 52.2948264 20.1133948 38.7526668 23.761966 35.1117699 33.7192787 45.0130325 49.6424665 29.1644224 53.3004961 32.8053193"></polygon>
                    </g>
                </g>
            </g>
        </g>
    </g>
</svg>