<?xml version="1.0" encoding="UTF-8"?>
<svg width="83px" height="83px" viewBox="0 0 83 83" version="1.1" xmlns="http://www.w3.org/2000/svg" xmlns:xlink="http://www.w3.org/1999/xlink">
    <title>编组 18</title>
    <defs>
        <polygon id="path-1" points="0.348825 0.522580645 19.912575 0.522580645 19.912575 71.1938323 0.348825 71.1938323"></polygon>
        <polygon id="path-3" points="0 0.5655 80.4816 0.5655 80.4816 6 0 6"></polygon>
    </defs>
    <g id="页面-1" stroke="none" stroke-width="1" fill="none" fill-rule="evenodd">
        <g id="产品-能力开放平台N" transform="translate(-459.000000, -1900.000000)">
            <g id="编组-3" transform="translate(365.000000, 1868.000000)">
                <g id="编组-18" transform="translate(94.000000, 32.000000)">
                    <rect id="矩形" x="0" y="0" width="83" height="83"></rect>
                    <g id="编组-20" transform="translate(1.000000, 0.000000)">
                        <path d="M8.99884978,42.928224 C8.99884978,41.4739056 10.1214631,40.287104 11.4994249,40.287104 L16.4982747,40.287104 C17.8762365,40.287104 18.9988498,41.4739056 18.9988498,42.928224 L18.9988498,64.069344 C18.9988498,65.5260944 17.8762365,66.712896 16.4982747,66.712896 L11.4994249,66.712896 C10.1214631,66.712896 8.99884978,65.5260944 8.99884978,64.069344 L8.99884978,42.928224 Z M11.4994249,72 L16.4982747,72 C20.6344605,72 24,68.446891 24,64.069344 L24,42.928224 C24,38.5579729 20.6344605,35 16.4982747,35 L11.4994249,35 C7.36323902,35 4,38.5579729 4,42.928224 L4,64.069344 C4,68.446891 7.36323902,72 11.4994249,72 L11.4994249,72 Z" id="Fill-1" fill="#417BFC"></path>
                        <path d="M33.9988498,28.6517598 C33.9988498,27.2462388 35.1214631,26.1011732 36.4994249,26.1011732 L41.5005751,26.1011732 C42.8762365,26.1011732 44.0011502,27.2462388 44.0011502,28.6517598 L44.0011502,64.3482402 C44.0011502,65.7537612 42.8762365,66.8988268 41.5005751,66.8988268 L36.4994249,66.8988268 C35.1214631,66.8988268 33.9988498,65.7537612 33.9988498,64.3482402 L33.9988498,28.6517598 Z M36.4994249,72 L41.5005751,72 C45.636761,72 49,68.5718427 49,64.3482402 L49,28.6517598 C49,24.4328502 45.636761,21 41.5005751,21 L36.4994249,21 C32.363239,21 29,24.4328502 29,28.6517598 L29,64.3482402 C29,68.5718427 32.363239,72 36.4994249,72 L36.4994249,72 Z" id="Fill-3" fill="#417BFC"></path>
                        <g id="编组" transform="translate(51.000000, 0.000000)">
                            <mask id="mask-2" fill="white">
                                <use xlink:href="#path-1"></use>
                            </mask>
                            <g id="Clip-6"></g>
                            <path d="M5.240325,8.09396129 C5.240325,6.70273548 6.338325,5.56931613 7.686075,5.56931613 L12.575325,5.56931613 C13.920825,5.56931613 15.021075,6.70273548 15.021075,8.09396129 L15.021075,63.6222194 C15.021075,65.0111226 13.920825,66.1468645 12.575325,66.1468645 L7.686075,66.1468645 C6.338325,66.1468645 5.240325,65.0111226 5.240325,63.6222194 L5.240325,8.09396129 Z M7.686075,71.1938323 L12.575325,71.1938323 C16.620825,71.1938323 19.912575,67.8028645 19.912575,63.6222194 L19.912575,8.09396129 C19.912575,3.91796129 16.620825,0.522348387 12.575325,0.522348387 L7.686075,0.522348387 C3.640575,0.522348387 0.348825,3.91796129 0.348825,8.09396129 L0.348825,63.6222194 C0.348825,67.8028645 3.640575,71.1938323 7.686075,71.1938323 L7.686075,71.1938323 Z" id="Fill-5" fill="#417BFC" mask="url(#mask-2)"></path>
                        </g>
                        <g id="编组" transform="translate(0.000000, 77.000000)">
                            <mask id="mask-4" fill="white">
                                <use xlink:href="#path-3"></use>
                            </mask>
                            <g id="Clip-8"></g>
                            <path d="M77.9682857,0.5655 L2.51562857,0.5655 C1.12474286,0.5655 0,1.7855 0,3.283 C0,4.788 1.12474286,6.0005 2.51562857,6.0005 L77.9682857,6.0005 C79.3591714,6.0005 80.4839143,4.788 80.4839143,3.283 C80.4839143,1.7855 79.3591714,0.5655 77.9682857,0.5655" id="Fill-7" fill="#417BFC" mask="url(#mask-4)"></path>
                        </g>
                    </g>
                </g>
            </g>
        </g>
    </g>
</svg>